<mxfile host="app.diagrams.net" modified="2023-08-31T21:56:25.364Z" agent="Mozilla/5.0 (Windows NT 10.0; Win64; x64) AppleWebKit/537.36 (KHTML, like Gecko) Chrome/116.0.0.0 Safari/537.36" etag="gyZktUjWTqirtT9-zaiT" version="21.7.1" type="github" pages="2">
  <diagram id="C5RBs43oDa-KdzZeNtuy" name="Page-1">
    <mxGraphModel dx="2117" dy="1735" grid="1" gridSize="10" guides="1" tooltips="1" connect="1" arrows="1" fold="1" page="1" pageScale="1" pageWidth="827" pageHeight="1169" math="0" shadow="0">
      <root>
        <mxCell id="WIyWlLk6GJQsqaUBKTNV-0" />
        <mxCell id="WIyWlLk6GJQsqaUBKTNV-1" parent="WIyWlLk6GJQsqaUBKTNV-0" />
        <mxCell id="zkfFHV4jXpPFQw0GAbJ--0" value="Pessoa" style="swimlane;fontStyle=2;align=center;verticalAlign=top;childLayout=stackLayout;horizontal=1;startSize=26;horizontalStack=0;resizeParent=1;resizeLast=0;collapsible=1;marginBottom=0;rounded=0;shadow=0;strokeWidth=1;" parent="WIyWlLk6GJQsqaUBKTNV-1" vertex="1">
          <mxGeometry x="150" y="-92" width="160" height="240" as="geometry">
            <mxRectangle x="230" y="140" width="160" height="26" as="alternateBounds" />
          </mxGeometry>
        </mxCell>
        <mxCell id="8dxnfPyvJ1v5oPELOGiW-13" value="- nome: String" style="text;align=left;verticalAlign=top;spacingLeft=4;spacingRight=4;overflow=hidden;rotatable=0;points=[[0,0.5],[1,0.5]];portConstraint=eastwest;" vertex="1" parent="zkfFHV4jXpPFQw0GAbJ--0">
          <mxGeometry y="26" width="160" height="26" as="geometry" />
        </mxCell>
        <mxCell id="8dxnfPyvJ1v5oPELOGiW-15" value="- e-mail: String" style="text;align=left;verticalAlign=top;spacingLeft=4;spacingRight=4;overflow=hidden;rotatable=0;points=[[0,0.5],[1,0.5]];portConstraint=eastwest;rounded=0;shadow=0;html=0;" vertex="1" parent="zkfFHV4jXpPFQw0GAbJ--0">
          <mxGeometry y="52" width="160" height="28" as="geometry" />
        </mxCell>
        <mxCell id="8dxnfPyvJ1v5oPELOGiW-14" value="- logradouro: String" style="text;align=left;verticalAlign=top;spacingLeft=4;spacingRight=4;overflow=hidden;rotatable=0;points=[[0,0.5],[1,0.5]];portConstraint=eastwest;rounded=0;shadow=0;html=0;" vertex="1" parent="zkfFHV4jXpPFQw0GAbJ--0">
          <mxGeometry y="80" width="160" height="28" as="geometry" />
        </mxCell>
        <mxCell id="8dxnfPyvJ1v5oPELOGiW-121" value="- bairro: String" style="text;align=left;verticalAlign=top;spacingLeft=4;spacingRight=4;overflow=hidden;rotatable=0;points=[[0,0.5],[1,0.5]];portConstraint=eastwest;rounded=0;shadow=0;html=0;" vertex="1" parent="zkfFHV4jXpPFQw0GAbJ--0">
          <mxGeometry y="108" width="160" height="28" as="geometry" />
        </mxCell>
        <mxCell id="8dxnfPyvJ1v5oPELOGiW-16" value="- numero: Integer" style="text;align=left;verticalAlign=top;spacingLeft=4;spacingRight=4;overflow=hidden;rotatable=0;points=[[0,0.5],[1,0.5]];portConstraint=eastwest;rounded=0;shadow=0;html=0;" vertex="1" parent="zkfFHV4jXpPFQw0GAbJ--0">
          <mxGeometry y="136" width="160" height="24" as="geometry" />
        </mxCell>
        <mxCell id="8dxnfPyvJ1v5oPELOGiW-123" value="- estado: String" style="text;align=left;verticalAlign=top;spacingLeft=4;spacingRight=4;overflow=hidden;rotatable=0;points=[[0,0.5],[1,0.5]];portConstraint=eastwest;rounded=0;shadow=0;html=0;" vertex="1" parent="zkfFHV4jXpPFQw0GAbJ--0">
          <mxGeometry y="160" width="160" height="24" as="geometry" />
        </mxCell>
        <mxCell id="8dxnfPyvJ1v5oPELOGiW-124" value="- cidade: String" style="text;align=left;verticalAlign=top;spacingLeft=4;spacingRight=4;overflow=hidden;rotatable=0;points=[[0,0.5],[1,0.5]];portConstraint=eastwest;rounded=0;shadow=0;html=0;" vertex="1" parent="zkfFHV4jXpPFQw0GAbJ--0">
          <mxGeometry y="184" width="160" height="24" as="geometry" />
        </mxCell>
        <mxCell id="8dxnfPyvJ1v5oPELOGiW-125" value="- telefone: Integer" style="text;align=left;verticalAlign=top;spacingLeft=4;spacingRight=4;overflow=hidden;rotatable=0;points=[[0,0.5],[1,0.5]];portConstraint=eastwest;rounded=0;shadow=0;html=0;" vertex="1" parent="zkfFHV4jXpPFQw0GAbJ--0">
          <mxGeometry y="208" width="160" height="24" as="geometry" />
        </mxCell>
        <mxCell id="zkfFHV4jXpPFQw0GAbJ--6" value="Cliente" style="swimlane;fontStyle=0;align=center;verticalAlign=top;childLayout=stackLayout;horizontal=1;startSize=26;horizontalStack=0;resizeParent=1;resizeLast=0;collapsible=1;marginBottom=0;rounded=0;shadow=0;strokeWidth=1;" parent="WIyWlLk6GJQsqaUBKTNV-1" vertex="1">
          <mxGeometry x="400" y="-100" width="180" height="214" as="geometry">
            <mxRectangle x="130" y="380" width="160" height="26" as="alternateBounds" />
          </mxGeometry>
        </mxCell>
        <mxCell id="8dxnfPyvJ1v5oPELOGiW-11" value="- cpf_cliente: String" style="text;align=left;verticalAlign=top;spacingLeft=4;spacingRight=4;overflow=hidden;rotatable=0;points=[[0,0.5],[1,0.5]];portConstraint=eastwest;rounded=0;shadow=0;html=0;" vertex="1" parent="zkfFHV4jXpPFQw0GAbJ--6">
          <mxGeometry y="26" width="180" height="28" as="geometry" />
        </mxCell>
        <mxCell id="8dxnfPyvJ1v5oPELOGiW-9" value="- profissao: String" style="text;align=left;verticalAlign=top;spacingLeft=4;spacingRight=4;overflow=hidden;rotatable=0;points=[[0,0.5],[1,0.5]];portConstraint=eastwest;rounded=0;shadow=0;html=0;" vertex="1" parent="zkfFHV4jXpPFQw0GAbJ--6">
          <mxGeometry y="54" width="180" height="28" as="geometry" />
        </mxCell>
        <mxCell id="8dxnfPyvJ1v5oPELOGiW-127" value="" style="line;strokeWidth=1;fillColor=none;align=left;verticalAlign=middle;spacingTop=-1;spacingLeft=3;spacingRight=3;rotatable=0;labelPosition=right;points=[];portConstraint=eastwest;strokeColor=inherit;" vertex="1" parent="zkfFHV4jXpPFQw0GAbJ--6">
          <mxGeometry y="82" width="180" height="8" as="geometry" />
        </mxCell>
        <mxCell id="8dxnfPyvJ1v5oPELOGiW-130" value="+cadastrarCliente(): void" style="text;align=left;verticalAlign=top;spacingLeft=4;spacingRight=4;overflow=hidden;rotatable=0;points=[[0,0.5],[1,0.5]];portConstraint=eastwest;rounded=0;shadow=0;html=0;" vertex="1" parent="zkfFHV4jXpPFQw0GAbJ--6">
          <mxGeometry y="90" width="180" height="28" as="geometry" />
        </mxCell>
        <mxCell id="8dxnfPyvJ1v5oPELOGiW-131" value="+consultarCliente(): Cliente" style="text;align=left;verticalAlign=top;spacingLeft=4;spacingRight=4;overflow=hidden;rotatable=0;points=[[0,0.5],[1,0.5]];portConstraint=eastwest;rounded=0;shadow=0;html=0;" vertex="1" parent="zkfFHV4jXpPFQw0GAbJ--6">
          <mxGeometry y="118" width="180" height="28" as="geometry" />
        </mxCell>
        <mxCell id="8dxnfPyvJ1v5oPELOGiW-132" value="+alterarCliente(id_cliente): void" style="text;align=left;verticalAlign=top;spacingLeft=4;spacingRight=4;overflow=hidden;rotatable=0;points=[[0,0.5],[1,0.5]];portConstraint=eastwest;rounded=0;shadow=0;html=0;" vertex="1" parent="zkfFHV4jXpPFQw0GAbJ--6">
          <mxGeometry y="146" width="180" height="28" as="geometry" />
        </mxCell>
        <mxCell id="8dxnfPyvJ1v5oPELOGiW-133" value="+excluirCliente(id_cliente): void" style="text;align=left;verticalAlign=top;spacingLeft=4;spacingRight=4;overflow=hidden;rotatable=0;points=[[0,0.5],[1,0.5]];portConstraint=eastwest;rounded=0;shadow=0;html=0;" vertex="1" parent="zkfFHV4jXpPFQw0GAbJ--6">
          <mxGeometry y="174" width="180" height="28" as="geometry" />
        </mxCell>
        <mxCell id="zkfFHV4jXpPFQw0GAbJ--12" value="" style="endArrow=block;endSize=10;endFill=0;shadow=0;strokeWidth=1;rounded=0;edgeStyle=elbowEdgeStyle;elbow=vertical;exitX=0.5;exitY=0;exitDx=0;exitDy=0;" parent="WIyWlLk6GJQsqaUBKTNV-1" edge="1">
          <mxGeometry width="160" relative="1" as="geometry">
            <mxPoint x="95" y="209.5" as="sourcePoint" />
            <mxPoint x="150" y="76.5" as="targetPoint" />
            <Array as="points">
              <mxPoint x="120" y="76.5" />
            </Array>
          </mxGeometry>
        </mxCell>
        <mxCell id="zkfFHV4jXpPFQw0GAbJ--13" value="FuncionÃ¡rio" style="swimlane;fontStyle=0;align=center;verticalAlign=top;childLayout=stackLayout;horizontal=1;startSize=26;horizontalStack=0;resizeParent=1;resizeLast=0;collapsible=1;marginBottom=0;rounded=0;shadow=0;strokeWidth=1;" parent="WIyWlLk6GJQsqaUBKTNV-1" vertex="1">
          <mxGeometry x="147.5" y="250" width="205" height="120" as="geometry">
            <mxRectangle x="340" y="380" width="170" height="26" as="alternateBounds" />
          </mxGeometry>
        </mxCell>
        <mxCell id="zkfFHV4jXpPFQw0GAbJ--14" value="- cargo_funcionario: String" style="text;align=left;verticalAlign=top;spacingLeft=4;spacingRight=4;overflow=hidden;rotatable=0;points=[[0,0.5],[1,0.5]];portConstraint=eastwest;" parent="zkfFHV4jXpPFQw0GAbJ--13" vertex="1">
          <mxGeometry y="26" width="205" height="26" as="geometry" />
        </mxCell>
        <mxCell id="8dxnfPyvJ1v5oPELOGiW-18" value="- cpf_funcionario: String" style="text;align=left;verticalAlign=top;spacingLeft=4;spacingRight=4;overflow=hidden;rotatable=0;points=[[0,0.5],[1,0.5]];portConstraint=eastwest;" vertex="1" parent="zkfFHV4jXpPFQw0GAbJ--13">
          <mxGeometry y="52" width="205" height="28" as="geometry" />
        </mxCell>
        <mxCell id="8dxnfPyvJ1v5oPELOGiW-140" value="" style="line;strokeWidth=1;fillColor=none;align=left;verticalAlign=middle;spacingTop=-1;spacingLeft=3;spacingRight=3;rotatable=0;labelPosition=right;points=[];portConstraint=eastwest;strokeColor=inherit;" vertex="1" parent="zkfFHV4jXpPFQw0GAbJ--13">
          <mxGeometry y="80" width="205" height="10" as="geometry" />
        </mxCell>
        <mxCell id="8dxnfPyvJ1v5oPELOGiW-141" value="+ consultaFuncionario(): Funcionario" style="text;html=1;align=center;verticalAlign=middle;resizable=0;points=[];autosize=1;strokeColor=none;fillColor=none;" vertex="1" parent="zkfFHV4jXpPFQw0GAbJ--13">
          <mxGeometry y="90" width="205" height="30" as="geometry" />
        </mxCell>
        <mxCell id="zkfFHV4jXpPFQw0GAbJ--16" value="" style="endArrow=block;endSize=10;endFill=0;shadow=0;strokeWidth=1;rounded=0;edgeStyle=elbowEdgeStyle;elbow=vertical;" parent="WIyWlLk6GJQsqaUBKTNV-1" source="zkfFHV4jXpPFQw0GAbJ--13" target="zkfFHV4jXpPFQw0GAbJ--0" edge="1">
          <mxGeometry width="160" relative="1" as="geometry">
            <mxPoint x="140" y="263" as="sourcePoint" />
            <mxPoint x="240" y="161" as="targetPoint" />
            <Array as="points">
              <mxPoint x="270" y="170" />
            </Array>
          </mxGeometry>
        </mxCell>
        <mxCell id="zkfFHV4jXpPFQw0GAbJ--17" value="Fornecedor" style="swimlane;fontStyle=0;align=center;verticalAlign=top;childLayout=stackLayout;horizontal=1;startSize=26;horizontalStack=0;resizeParent=1;resizeLast=0;collapsible=1;marginBottom=0;rounded=0;shadow=0;strokeWidth=1;" parent="WIyWlLk6GJQsqaUBKTNV-1" vertex="1">
          <mxGeometry x="-50" y="211" width="190" height="132" as="geometry">
            <mxRectangle x="550" y="140" width="160" height="26" as="alternateBounds" />
          </mxGeometry>
        </mxCell>
        <mxCell id="zkfFHV4jXpPFQw0GAbJ--18" value="- cnpj_fornecedor: String" style="text;align=left;verticalAlign=top;spacingLeft=4;spacingRight=4;overflow=hidden;rotatable=0;points=[[0,0.5],[1,0.5]];portConstraint=eastwest;" parent="zkfFHV4jXpPFQw0GAbJ--17" vertex="1">
          <mxGeometry y="26" width="190" height="24" as="geometry" />
        </mxCell>
        <mxCell id="8dxnfPyvJ1v5oPELOGiW-161" value="" style="line;strokeWidth=1;fillColor=none;align=left;verticalAlign=middle;spacingTop=-1;spacingLeft=3;spacingRight=3;rotatable=0;labelPosition=right;points=[];portConstraint=eastwest;strokeColor=inherit;" vertex="1" parent="zkfFHV4jXpPFQw0GAbJ--17">
          <mxGeometry y="50" width="190" height="22" as="geometry" />
        </mxCell>
        <mxCell id="8dxnfPyvJ1v5oPELOGiW-163" value="+consultaFornecedor(): Fornecedor" style="text;html=1;align=center;verticalAlign=middle;resizable=0;points=[];autosize=1;strokeColor=none;fillColor=none;" vertex="1" parent="zkfFHV4jXpPFQw0GAbJ--17">
          <mxGeometry y="72" width="190" height="30" as="geometry" />
        </mxCell>
        <mxCell id="8dxnfPyvJ1v5oPELOGiW-187" value="+enviarPedidoCompra(): void" style="text;html=1;align=center;verticalAlign=middle;resizable=0;points=[];autosize=1;strokeColor=none;fillColor=none;" vertex="1" parent="zkfFHV4jXpPFQw0GAbJ--17">
          <mxGeometry y="102" width="190" height="30" as="geometry" />
        </mxCell>
        <mxCell id="8dxnfPyvJ1v5oPELOGiW-19" value="Livro" style="swimlane;whiteSpace=wrap;html=1;startSize=23;" vertex="1" parent="WIyWlLk6GJQsqaUBKTNV-1">
          <mxGeometry x="880" y="480" width="200" height="220" as="geometry" />
        </mxCell>
        <mxCell id="8dxnfPyvJ1v5oPELOGiW-21" value="- nome_livro: String" style="text;align=left;verticalAlign=top;spacingLeft=4;spacingRight=4;overflow=hidden;rotatable=0;points=[[0,0.5],[1,0.5]];portConstraint=eastwest;rounded=0;shadow=0;html=0;" vertex="1" parent="8dxnfPyvJ1v5oPELOGiW-19">
          <mxGeometry y="20" width="150" height="28" as="geometry" />
        </mxCell>
        <mxCell id="8dxnfPyvJ1v5oPELOGiW-22" value="- autor_livro: String" style="text;align=left;verticalAlign=top;spacingLeft=4;spacingRight=4;overflow=hidden;rotatable=0;points=[[0,0.5],[1,0.5]];portConstraint=eastwest;rounded=0;shadow=0;html=0;" vertex="1" parent="8dxnfPyvJ1v5oPELOGiW-19">
          <mxGeometry y="40" width="150" height="28" as="geometry" />
        </mxCell>
        <mxCell id="8dxnfPyvJ1v5oPELOGiW-23" value="- editora: String" style="text;align=left;verticalAlign=top;spacingLeft=4;spacingRight=4;overflow=hidden;rotatable=0;points=[[0,0.5],[1,0.5]];portConstraint=eastwest;rounded=0;shadow=0;html=0;" vertex="1" parent="8dxnfPyvJ1v5oPELOGiW-19">
          <mxGeometry y="60" width="150" height="28" as="geometry" />
        </mxCell>
        <mxCell id="8dxnfPyvJ1v5oPELOGiW-24" value="- assunto_livro: String" style="text;align=left;verticalAlign=top;spacingLeft=4;spacingRight=4;overflow=hidden;rotatable=0;points=[[0,0.5],[1,0.5]];portConstraint=eastwest;rounded=0;shadow=0;html=0;" vertex="1" parent="8dxnfPyvJ1v5oPELOGiW-19">
          <mxGeometry y="80" width="150" height="28" as="geometry" />
        </mxCell>
        <mxCell id="8dxnfPyvJ1v5oPELOGiW-25" value="- ISBM: String" style="text;align=left;verticalAlign=top;spacingLeft=4;spacingRight=4;overflow=hidden;rotatable=0;points=[[0,0.5],[1,0.5]];portConstraint=eastwest;rounded=0;shadow=0;html=0;" vertex="1" parent="8dxnfPyvJ1v5oPELOGiW-19">
          <mxGeometry y="100" width="150" height="28" as="geometry" />
        </mxCell>
        <mxCell id="8dxnfPyvJ1v5oPELOGiW-27" value="- preco_venda: Float" style="text;align=left;verticalAlign=top;spacingLeft=4;spacingRight=4;overflow=hidden;rotatable=0;points=[[0,0.5],[1,0.5]];portConstraint=eastwest;rounded=0;shadow=0;html=0;" vertex="1" parent="8dxnfPyvJ1v5oPELOGiW-19">
          <mxGeometry y="120" width="150" height="28" as="geometry" />
        </mxCell>
        <mxCell id="8dxnfPyvJ1v5oPELOGiW-28" value="- qtd_estoque: Integer" style="text;align=left;verticalAlign=top;spacingLeft=4;spacingRight=4;overflow=hidden;rotatable=0;points=[[0,0.5],[1,0.5]];portConstraint=eastwest;rounded=0;shadow=0;html=0;" vertex="1" parent="8dxnfPyvJ1v5oPELOGiW-19">
          <mxGeometry y="140" width="150" height="28" as="geometry" />
        </mxCell>
        <mxCell id="8dxnfPyvJ1v5oPELOGiW-158" value="" style="line;strokeWidth=1;fillColor=none;align=left;verticalAlign=middle;spacingTop=-1;spacingLeft=3;spacingRight=3;rotatable=0;labelPosition=right;points=[];portConstraint=eastwest;strokeColor=inherit;" vertex="1" parent="8dxnfPyvJ1v5oPELOGiW-19">
          <mxGeometry y="168" width="200" height="8" as="geometry" />
        </mxCell>
        <mxCell id="8dxnfPyvJ1v5oPELOGiW-159" value="+consultaLivro(): Livro" style="text;html=1;align=center;verticalAlign=middle;resizable=0;points=[];autosize=1;strokeColor=none;fillColor=none;" vertex="1" parent="8dxnfPyvJ1v5oPELOGiW-19">
          <mxGeometry y="168" width="140" height="30" as="geometry" />
        </mxCell>
        <mxCell id="8dxnfPyvJ1v5oPELOGiW-160" value="+baixarEstoque(qtd_venda): void" style="text;html=1;align=center;verticalAlign=middle;resizable=0;points=[];autosize=1;strokeColor=none;fillColor=none;" vertex="1" parent="8dxnfPyvJ1v5oPELOGiW-19">
          <mxGeometry y="190" width="200" height="30" as="geometry" />
        </mxCell>
        <mxCell id="8dxnfPyvJ1v5oPELOGiW-29" value="Venda" style="swimlane;whiteSpace=wrap;html=1;" vertex="1" parent="WIyWlLk6GJQsqaUBKTNV-1">
          <mxGeometry x="400" y="200" width="330" height="250" as="geometry" />
        </mxCell>
        <mxCell id="8dxnfPyvJ1v5oPELOGiW-30" value="- data_venda: Date" style="text;align=left;verticalAlign=top;spacingLeft=4;spacingRight=4;overflow=hidden;rotatable=0;points=[[0,0.5],[1,0.5]];portConstraint=eastwest;rounded=0;shadow=0;html=0;" vertex="1" parent="8dxnfPyvJ1v5oPELOGiW-29">
          <mxGeometry y="20" width="150" height="28" as="geometry" />
        </mxCell>
        <mxCell id="8dxnfPyvJ1v5oPELOGiW-33" value="- qtd_livros_vendidos: Integer&#xa;" style="text;align=left;verticalAlign=top;spacingLeft=4;spacingRight=4;overflow=hidden;rotatable=0;points=[[0,0.5],[1,0.5]];portConstraint=eastwest;rounded=0;shadow=0;html=0;" vertex="1" parent="8dxnfPyvJ1v5oPELOGiW-29">
          <mxGeometry y="40" width="170" height="28" as="geometry" />
        </mxCell>
        <mxCell id="8dxnfPyvJ1v5oPELOGiW-34" value="- valor_total: Float" style="text;align=left;verticalAlign=top;spacingLeft=4;spacingRight=4;overflow=hidden;rotatable=0;points=[[0,0.5],[1,0.5]];portConstraint=eastwest;rounded=0;shadow=0;html=0;" vertex="1" parent="8dxnfPyvJ1v5oPELOGiW-29">
          <mxGeometry y="60" width="150" height="28" as="geometry" />
        </mxCell>
        <mxCell id="8dxnfPyvJ1v5oPELOGiW-35" value="- tipo_venda: String" style="text;align=left;verticalAlign=top;spacingLeft=4;spacingRight=4;overflow=hidden;rotatable=0;points=[[0,0.5],[1,0.5]];portConstraint=eastwest;rounded=0;shadow=0;html=0;" vertex="1" parent="8dxnfPyvJ1v5oPELOGiW-29">
          <mxGeometry y="80" width="150" height="28" as="geometry" />
        </mxCell>
        <mxCell id="8dxnfPyvJ1v5oPELOGiW-36" value="- numero: Integer" style="text;align=left;verticalAlign=top;spacingLeft=4;spacingRight=4;overflow=hidden;rotatable=0;points=[[0,0.5],[1,0.5]];portConstraint=eastwest;rounded=0;shadow=0;html=0;" vertex="1" parent="8dxnfPyvJ1v5oPELOGiW-29">
          <mxGeometry y="100" width="150" height="28" as="geometry" />
        </mxCell>
        <mxCell id="8dxnfPyvJ1v5oPELOGiW-134" value="" style="line;strokeWidth=1;fillColor=none;align=left;verticalAlign=middle;spacingTop=-1;spacingLeft=3;spacingRight=3;rotatable=0;labelPosition=right;points=[];portConstraint=eastwest;strokeColor=inherit;" vertex="1" parent="8dxnfPyvJ1v5oPELOGiW-29">
          <mxGeometry y="120" width="330" height="10" as="geometry" />
        </mxCell>
        <mxCell id="8dxnfPyvJ1v5oPELOGiW-143" value="+realizarVenda(): void" style="text;html=1;align=center;verticalAlign=middle;resizable=0;points=[];autosize=1;strokeColor=none;fillColor=none;" vertex="1" parent="8dxnfPyvJ1v5oPELOGiW-29">
          <mxGeometry x="-5" y="128" width="140" height="30" as="geometry" />
        </mxCell>
        <mxCell id="8dxnfPyvJ1v5oPELOGiW-149" value="+finalizarVenda(forma_pag, informacao_remessa):void" style="text;html=1;align=center;verticalAlign=middle;resizable=0;points=[];autosize=1;strokeColor=none;fillColor=none;" vertex="1" parent="8dxnfPyvJ1v5oPELOGiW-29">
          <mxGeometry x="-5" y="170" width="320" height="30" as="geometry" />
        </mxCell>
        <mxCell id="8dxnfPyvJ1v5oPELOGiW-144" value="+inserirItemVenda(Produto, qtd_venda, preco_venda): void" style="text;html=1;align=center;verticalAlign=middle;resizable=0;points=[];autosize=1;strokeColor=none;fillColor=none;" vertex="1" parent="8dxnfPyvJ1v5oPELOGiW-29">
          <mxGeometry x="-5" y="150" width="340" height="30" as="geometry" />
        </mxCell>
        <mxCell id="8dxnfPyvJ1v5oPELOGiW-150" value="+gerar_cupom_venda(): void" style="text;html=1;align=center;verticalAlign=middle;resizable=0;points=[];autosize=1;strokeColor=none;fillColor=none;" vertex="1" parent="8dxnfPyvJ1v5oPELOGiW-29">
          <mxGeometry x="-5" y="190" width="180" height="30" as="geometry" />
        </mxCell>
        <mxCell id="8dxnfPyvJ1v5oPELOGiW-151" value="+calcular_valor_total(): Float" style="text;html=1;align=center;verticalAlign=middle;resizable=0;points=[];autosize=1;strokeColor=none;fillColor=none;" vertex="1" parent="8dxnfPyvJ1v5oPELOGiW-29">
          <mxGeometry x="-5" y="210" width="180" height="30" as="geometry" />
        </mxCell>
        <mxCell id="8dxnfPyvJ1v5oPELOGiW-37" value="ItemVenda" style="swimlane;whiteSpace=wrap;html=1;" vertex="1" parent="WIyWlLk6GJQsqaUBKTNV-1">
          <mxGeometry x="900" y="200" width="250" height="140" as="geometry" />
        </mxCell>
        <mxCell id="8dxnfPyvJ1v5oPELOGiW-38" value="- valor_venda: Float" style="text;align=left;verticalAlign=top;spacingLeft=4;spacingRight=4;overflow=hidden;rotatable=0;points=[[0,0.5],[1,0.5]];portConstraint=eastwest;rounded=0;shadow=0;html=0;" vertex="1" parent="8dxnfPyvJ1v5oPELOGiW-37">
          <mxGeometry y="20" width="150" height="28" as="geometry" />
        </mxCell>
        <mxCell id="8dxnfPyvJ1v5oPELOGiW-39" value="- quantidade: Integer" style="text;align=left;verticalAlign=top;spacingLeft=4;spacingRight=4;overflow=hidden;rotatable=0;points=[[0,0.5],[1,0.5]];portConstraint=eastwest;rounded=0;shadow=0;html=0;" vertex="1" parent="8dxnfPyvJ1v5oPELOGiW-37">
          <mxGeometry y="40" width="150" height="28" as="geometry" />
        </mxCell>
        <mxCell id="8dxnfPyvJ1v5oPELOGiW-42" value="- desconto: Float" style="text;align=left;verticalAlign=top;spacingLeft=4;spacingRight=4;overflow=hidden;rotatable=0;points=[[0,0.5],[1,0.5]];portConstraint=eastwest;rounded=0;shadow=0;html=0;" vertex="1" parent="8dxnfPyvJ1v5oPELOGiW-37">
          <mxGeometry y="60" width="150" height="28" as="geometry" />
        </mxCell>
        <mxCell id="8dxnfPyvJ1v5oPELOGiW-155" value="" style="line;strokeWidth=1;fillColor=none;align=left;verticalAlign=middle;spacingTop=-1;spacingLeft=3;spacingRight=3;rotatable=0;labelPosition=right;points=[];portConstraint=eastwest;strokeColor=inherit;" vertex="1" parent="8dxnfPyvJ1v5oPELOGiW-37">
          <mxGeometry x="1.5" y="80" width="248.5" height="8" as="geometry" />
        </mxCell>
        <mxCell id="8dxnfPyvJ1v5oPELOGiW-156" value="+novo_item(qtd_venda, preco_venda):void" style="text;html=1;align=center;verticalAlign=middle;resizable=0;points=[];autosize=1;strokeColor=none;fillColor=none;" vertex="1" parent="8dxnfPyvJ1v5oPELOGiW-37">
          <mxGeometry x="-5" y="80" width="250" height="30" as="geometry" />
        </mxCell>
        <mxCell id="8dxnfPyvJ1v5oPELOGiW-157" value="+baixarEstoque(livro, qtd_venda): void" style="text;html=1;align=center;verticalAlign=middle;resizable=0;points=[];autosize=1;strokeColor=none;fillColor=none;" vertex="1" parent="8dxnfPyvJ1v5oPELOGiW-37">
          <mxGeometry x="-5" y="100" width="230" height="30" as="geometry" />
        </mxCell>
        <mxCell id="8dxnfPyvJ1v5oPELOGiW-41" value="" style="endArrow=block;endSize=10;endFill=0;shadow=0;strokeWidth=1;rounded=0;edgeStyle=elbowEdgeStyle;elbow=vertical;" edge="1" parent="WIyWlLk6GJQsqaUBKTNV-1">
          <mxGeometry width="160" relative="1" as="geometry">
            <mxPoint x="400" y="10" as="sourcePoint" />
            <mxPoint x="310" y="12" as="targetPoint" />
            <Array as="points">
              <mxPoint x="390" y="12" />
            </Array>
          </mxGeometry>
        </mxCell>
        <mxCell id="8dxnfPyvJ1v5oPELOGiW-45" value="realiza" style="text;html=1;align=center;verticalAlign=middle;resizable=0;points=[];autosize=1;strokeColor=none;fillColor=none;" vertex="1" parent="WIyWlLk6GJQsqaUBKTNV-1">
          <mxGeometry x="350" y="330" width="60" height="30" as="geometry" />
        </mxCell>
        <mxCell id="8dxnfPyvJ1v5oPELOGiW-51" value="ItemCompra" style="swimlane;whiteSpace=wrap;html=1;startSize=23;" vertex="1" parent="WIyWlLk6GJQsqaUBKTNV-1">
          <mxGeometry x="415" y="470" width="210" height="90" as="geometry" />
        </mxCell>
        <mxCell id="8dxnfPyvJ1v5oPELOGiW-53" value="- qtd_compra: Integer" style="text;align=left;verticalAlign=top;spacingLeft=4;spacingRight=4;overflow=hidden;rotatable=0;points=[[0,0.5],[1,0.5]];portConstraint=eastwest;rounded=0;shadow=0;html=0;" vertex="1" parent="8dxnfPyvJ1v5oPELOGiW-51">
          <mxGeometry y="20" width="150" height="28" as="geometry" />
        </mxCell>
        <mxCell id="8dxnfPyvJ1v5oPELOGiW-54" value="- valor_compra: Float" style="text;align=left;verticalAlign=top;spacingLeft=4;spacingRight=4;overflow=hidden;rotatable=0;points=[[0,0.5],[1,0.5]];portConstraint=eastwest;rounded=0;shadow=0;html=0;" vertex="1" parent="8dxnfPyvJ1v5oPELOGiW-51">
          <mxGeometry y="40" width="150" height="28" as="geometry" />
        </mxCell>
        <mxCell id="8dxnfPyvJ1v5oPELOGiW-176" value="" style="line;strokeWidth=1;fillColor=none;align=left;verticalAlign=middle;spacingTop=-1;spacingLeft=3;spacingRight=3;rotatable=0;labelPosition=right;points=[];portConstraint=eastwest;strokeColor=inherit;" vertex="1" parent="8dxnfPyvJ1v5oPELOGiW-51">
          <mxGeometry y="61" width="210" height="8" as="geometry" />
        </mxCell>
        <mxCell id="8dxnfPyvJ1v5oPELOGiW-178" value="+novoItem(Produto, qtdCompra): void" style="text;html=1;align=center;verticalAlign=middle;resizable=0;points=[];autosize=1;strokeColor=none;fillColor=none;" vertex="1" parent="8dxnfPyvJ1v5oPELOGiW-51">
          <mxGeometry x="-6.25" y="68" width="220" height="30" as="geometry" />
        </mxCell>
        <mxCell id="8dxnfPyvJ1v5oPELOGiW-55" value="Compra" style="swimlane;whiteSpace=wrap;html=1;startSize=23;" vertex="1" parent="WIyWlLk6GJQsqaUBKTNV-1">
          <mxGeometry x="70" y="480" width="260" height="180" as="geometry" />
        </mxCell>
        <mxCell id="8dxnfPyvJ1v5oPELOGiW-56" value="- numero_compra: Integer" style="text;align=left;verticalAlign=top;spacingLeft=4;spacingRight=4;overflow=hidden;rotatable=0;points=[[0,0.5],[1,0.5]];portConstraint=eastwest;rounded=0;shadow=0;html=0;" vertex="1" parent="8dxnfPyvJ1v5oPELOGiW-55">
          <mxGeometry y="20" width="150" height="28" as="geometry" />
        </mxCell>
        <mxCell id="8dxnfPyvJ1v5oPELOGiW-58" value="- data_compra: Date" style="text;align=left;verticalAlign=top;spacingLeft=4;spacingRight=4;overflow=hidden;rotatable=0;points=[[0,0.5],[1,0.5]];portConstraint=eastwest;rounded=0;shadow=0;html=0;" vertex="1" parent="8dxnfPyvJ1v5oPELOGiW-55">
          <mxGeometry y="40" width="150" height="28" as="geometry" />
        </mxCell>
        <mxCell id="8dxnfPyvJ1v5oPELOGiW-59" value="- valor_total: Float" style="text;align=left;verticalAlign=top;spacingLeft=4;spacingRight=4;overflow=hidden;rotatable=0;points=[[0,0.5],[1,0.5]];portConstraint=eastwest;rounded=0;shadow=0;html=0;" vertex="1" parent="8dxnfPyvJ1v5oPELOGiW-55">
          <mxGeometry y="60" width="150" height="28" as="geometry" />
        </mxCell>
        <mxCell id="8dxnfPyvJ1v5oPELOGiW-168" value="" style="line;strokeWidth=1;fillColor=none;align=left;verticalAlign=middle;spacingTop=-1;spacingLeft=3;spacingRight=3;rotatable=0;labelPosition=right;points=[];portConstraint=eastwest;strokeColor=inherit;" vertex="1" parent="8dxnfPyvJ1v5oPELOGiW-55">
          <mxGeometry y="88" width="260" height="8" as="geometry" />
        </mxCell>
        <mxCell id="8dxnfPyvJ1v5oPELOGiW-169" value="+novaCompra(): void&lt;br&gt;" style="text;html=1;align=center;verticalAlign=middle;resizable=0;points=[];autosize=1;strokeColor=none;fillColor=none;" vertex="1" parent="8dxnfPyvJ1v5oPELOGiW-55">
          <mxGeometry x="-10" y="90" width="140" height="30" as="geometry" />
        </mxCell>
        <mxCell id="8dxnfPyvJ1v5oPELOGiW-170" value="&lt;span style=&quot;color: rgb(0, 0, 0); font-family: Helvetica; font-size: 12px; font-style: normal; font-variant-ligatures: normal; font-variant-caps: normal; font-weight: 400; letter-spacing: normal; orphans: 2; text-align: center; text-indent: 0px; text-transform: none; widows: 2; word-spacing: 0px; -webkit-text-stroke-width: 0px; background-color: rgb(251, 251, 251); text-decoration-thickness: initial; text-decoration-style: initial; text-decoration-color: initial; float: none; display: inline !important;&quot;&gt;+inserirItemCompra(Produto, qtdCompra): void&lt;/span&gt;" style="text;whiteSpace=wrap;html=1;" vertex="1" parent="8dxnfPyvJ1v5oPELOGiW-55">
          <mxGeometry y="110" width="260" height="25" as="geometry" />
        </mxCell>
        <mxCell id="8dxnfPyvJ1v5oPELOGiW-173" value="+finalizarCompra(): void" style="text;html=1;align=center;verticalAlign=middle;resizable=0;points=[];autosize=1;strokeColor=none;fillColor=none;" vertex="1" parent="8dxnfPyvJ1v5oPELOGiW-55">
          <mxGeometry x="-10" y="130" width="150" height="30" as="geometry" />
        </mxCell>
        <mxCell id="8dxnfPyvJ1v5oPELOGiW-174" value="+gerarPedidoCompra(): void" style="text;html=1;align=center;verticalAlign=middle;resizable=0;points=[];autosize=1;strokeColor=none;fillColor=none;" vertex="1" parent="8dxnfPyvJ1v5oPELOGiW-55">
          <mxGeometry x="-15" y="150" width="180" height="30" as="geometry" />
        </mxCell>
        <mxCell id="8dxnfPyvJ1v5oPELOGiW-69" value="participa" style="text;html=1;align=center;verticalAlign=middle;resizable=0;points=[];autosize=1;strokeColor=none;fillColor=none;" vertex="1" parent="WIyWlLk6GJQsqaUBKTNV-1">
          <mxGeometry x="-30" y="440" width="70" height="30" as="geometry" />
        </mxCell>
        <mxCell id="8dxnfPyvJ1v5oPELOGiW-71" value="possui" style="text;html=1;align=center;verticalAlign=middle;resizable=0;points=[];autosize=1;strokeColor=none;fillColor=none;" vertex="1" parent="WIyWlLk6GJQsqaUBKTNV-1">
          <mxGeometry x="340" y="510" width="60" height="30" as="geometry" />
        </mxCell>
        <mxCell id="8dxnfPyvJ1v5oPELOGiW-75" value="Boleto" style="swimlane;whiteSpace=wrap;html=1;" vertex="1" parent="WIyWlLk6GJQsqaUBKTNV-1">
          <mxGeometry x="650" y="10" width="250" height="150" as="geometry" />
        </mxCell>
        <mxCell id="8dxnfPyvJ1v5oPELOGiW-81" value="- numero: Integer" style="text;html=1;align=center;verticalAlign=middle;resizable=0;points=[];autosize=1;strokeColor=none;fillColor=none;" vertex="1" parent="8dxnfPyvJ1v5oPELOGiW-75">
          <mxGeometry x="-5" y="22" width="120" height="30" as="geometry" />
        </mxCell>
        <mxCell id="8dxnfPyvJ1v5oPELOGiW-82" value="- data_vencimento: Date" style="text;html=1;align=center;verticalAlign=middle;resizable=0;points=[];autosize=1;strokeColor=none;fillColor=none;" vertex="1" parent="8dxnfPyvJ1v5oPELOGiW-75">
          <mxGeometry y="40" width="150" height="30" as="geometry" />
        </mxCell>
        <mxCell id="8dxnfPyvJ1v5oPELOGiW-84" value="- data_pagamento: Date" style="text;html=1;align=center;verticalAlign=middle;resizable=0;points=[];autosize=1;strokeColor=none;fillColor=none;" vertex="1" parent="8dxnfPyvJ1v5oPELOGiW-75">
          <mxGeometry y="60" width="150" height="30" as="geometry" />
        </mxCell>
        <mxCell id="8dxnfPyvJ1v5oPELOGiW-85" value="- valor_boleto: Float" style="text;html=1;align=center;verticalAlign=middle;resizable=0;points=[];autosize=1;strokeColor=none;fillColor=none;" vertex="1" parent="8dxnfPyvJ1v5oPELOGiW-75">
          <mxGeometry y="80" width="130" height="30" as="geometry" />
        </mxCell>
        <mxCell id="8dxnfPyvJ1v5oPELOGiW-86" value="- status: Char" style="text;html=1;align=center;verticalAlign=middle;resizable=0;points=[];autosize=1;strokeColor=none;fillColor=none;" vertex="1" parent="8dxnfPyvJ1v5oPELOGiW-75">
          <mxGeometry x="-5" y="100" width="100" height="30" as="geometry" />
        </mxCell>
        <mxCell id="8dxnfPyvJ1v5oPELOGiW-153" value="" style="line;strokeWidth=1;fillColor=none;align=left;verticalAlign=middle;spacingTop=-1;spacingLeft=3;spacingRight=3;rotatable=0;labelPosition=right;points=[];portConstraint=eastwest;strokeColor=inherit;" vertex="1" parent="8dxnfPyvJ1v5oPELOGiW-75">
          <mxGeometry y="122" width="250" height="8" as="geometry" />
        </mxCell>
        <mxCell id="8dxnfPyvJ1v5oPELOGiW-154" value="+verifica_pendencias(numero): Boolean" style="text;html=1;align=center;verticalAlign=middle;resizable=0;points=[];autosize=1;strokeColor=none;fillColor=none;" vertex="1" parent="8dxnfPyvJ1v5oPELOGiW-75">
          <mxGeometry x="-5" y="120" width="240" height="30" as="geometry" />
        </mxCell>
        <mxCell id="8dxnfPyvJ1v5oPELOGiW-76" value="" style="endArrow=none;html=1;rounded=0;entryX=0.968;entryY=1;entryDx=0;entryDy=0;entryPerimeter=0;" edge="1" parent="WIyWlLk6GJQsqaUBKTNV-1" target="8dxnfPyvJ1v5oPELOGiW-80">
          <mxGeometry width="50" height="50" relative="1" as="geometry">
            <mxPoint x="610" y="200" as="sourcePoint" />
            <mxPoint x="650" y="140" as="targetPoint" />
            <Array as="points">
              <mxPoint x="610" y="130" />
              <mxPoint x="620" y="130" />
            </Array>
          </mxGeometry>
        </mxCell>
        <mxCell id="8dxnfPyvJ1v5oPELOGiW-78" value="" style="endArrow=none;html=1;rounded=0;exitX=0;exitY=0.7;exitDx=0;exitDy=0;entryX=-0.167;entryY=0.153;entryDx=0;entryDy=0;entryPerimeter=0;exitPerimeter=0;" edge="1" parent="WIyWlLk6GJQsqaUBKTNV-1" source="8dxnfPyvJ1v5oPELOGiW-118" target="8dxnfPyvJ1v5oPELOGiW-116">
          <mxGeometry width="50" height="50" relative="1" as="geometry">
            <mxPoint x="480" y="190" as="sourcePoint" />
            <mxPoint x="490" y="120" as="targetPoint" />
          </mxGeometry>
        </mxCell>
        <mxCell id="8dxnfPyvJ1v5oPELOGiW-79" value="solicita" style="text;html=1;align=center;verticalAlign=middle;resizable=0;points=[];autosize=1;strokeColor=none;fillColor=none;" vertex="1" parent="WIyWlLk6GJQsqaUBKTNV-1">
          <mxGeometry x="430" y="148" width="60" height="30" as="geometry" />
        </mxCell>
        <mxCell id="8dxnfPyvJ1v5oPELOGiW-80" value="gera" style="text;html=1;align=center;verticalAlign=middle;resizable=0;points=[];autosize=1;strokeColor=none;fillColor=none;" vertex="1" parent="WIyWlLk6GJQsqaUBKTNV-1">
          <mxGeometry x="600" y="100" width="50" height="30" as="geometry" />
        </mxCell>
        <mxCell id="8dxnfPyvJ1v5oPELOGiW-89" value="possui" style="text;html=1;align=center;verticalAlign=middle;resizable=0;points=[];autosize=1;strokeColor=none;fillColor=none;" vertex="1" parent="WIyWlLk6GJQsqaUBKTNV-1">
          <mxGeometry x="705" y="500" width="60" height="30" as="geometry" />
        </mxCell>
        <mxCell id="8dxnfPyvJ1v5oPELOGiW-90" value="possui" style="text;html=1;align=center;verticalAlign=middle;resizable=0;points=[];autosize=1;strokeColor=none;fillColor=none;" vertex="1" parent="WIyWlLk6GJQsqaUBKTNV-1">
          <mxGeometry x="980" y="390" width="60" height="30" as="geometry" />
        </mxCell>
        <mxCell id="8dxnfPyvJ1v5oPELOGiW-91" value="contÃ©m" style="text;html=1;align=center;verticalAlign=middle;resizable=0;points=[];autosize=1;strokeColor=none;fillColor=none;" vertex="1" parent="WIyWlLk6GJQsqaUBKTNV-1">
          <mxGeometry x="790" y="240" width="60" height="30" as="geometry" />
        </mxCell>
        <mxCell id="8dxnfPyvJ1v5oPELOGiW-98" value="0..*" style="text;html=1;align=center;verticalAlign=middle;resizable=0;points=[];autosize=1;strokeColor=none;fillColor=none;" vertex="1" parent="WIyWlLk6GJQsqaUBKTNV-1">
          <mxGeometry x="615" y="128" width="40" height="30" as="geometry" />
        </mxCell>
        <mxCell id="8dxnfPyvJ1v5oPELOGiW-101" value="1" style="text;html=1;align=center;verticalAlign=middle;resizable=0;points=[];autosize=1;strokeColor=none;fillColor=none;" vertex="1" parent="WIyWlLk6GJQsqaUBKTNV-1">
          <mxGeometry x="585" y="178" width="30" height="30" as="geometry" />
        </mxCell>
        <mxCell id="8dxnfPyvJ1v5oPELOGiW-105" value="1" style="text;html=1;align=center;verticalAlign=middle;resizable=0;points=[];autosize=1;strokeColor=none;fillColor=none;" vertex="1" parent="WIyWlLk6GJQsqaUBKTNV-1">
          <mxGeometry x="720" y="270" width="30" height="30" as="geometry" />
        </mxCell>
        <mxCell id="8dxnfPyvJ1v5oPELOGiW-106" value="1..*" style="text;html=1;align=center;verticalAlign=middle;resizable=0;points=[];autosize=1;strokeColor=none;fillColor=none;" vertex="1" parent="WIyWlLk6GJQsqaUBKTNV-1">
          <mxGeometry x="870" y="261" width="40" height="30" as="geometry" />
        </mxCell>
        <mxCell id="8dxnfPyvJ1v5oPELOGiW-107" value="0..*" style="text;html=1;align=center;verticalAlign=middle;resizable=0;points=[];autosize=1;strokeColor=none;fillColor=none;" vertex="1" parent="WIyWlLk6GJQsqaUBKTNV-1">
          <mxGeometry x="985" y="450" width="40" height="30" as="geometry" />
        </mxCell>
        <mxCell id="8dxnfPyvJ1v5oPELOGiW-108" value="1" style="text;html=1;align=center;verticalAlign=middle;resizable=0;points=[];autosize=1;strokeColor=none;fillColor=none;" vertex="1" parent="WIyWlLk6GJQsqaUBKTNV-1">
          <mxGeometry x="990" y="340" width="30" height="30" as="geometry" />
        </mxCell>
        <mxCell id="8dxnfPyvJ1v5oPELOGiW-109" value="1" style="text;html=1;align=center;verticalAlign=middle;resizable=0;points=[];autosize=1;strokeColor=none;fillColor=none;" vertex="1" parent="WIyWlLk6GJQsqaUBKTNV-1">
          <mxGeometry x="853" y="520" width="30" height="30" as="geometry" />
        </mxCell>
        <mxCell id="8dxnfPyvJ1v5oPELOGiW-110" value="0..*" style="text;html=1;align=center;verticalAlign=middle;resizable=0;points=[];autosize=1;strokeColor=none;fillColor=none;" vertex="1" parent="WIyWlLk6GJQsqaUBKTNV-1">
          <mxGeometry x="622.5" y="520" width="40" height="30" as="geometry" />
        </mxCell>
        <mxCell id="8dxnfPyvJ1v5oPELOGiW-111" value="1" style="text;html=1;align=center;verticalAlign=middle;resizable=0;points=[];autosize=1;strokeColor=none;fillColor=none;" vertex="1" parent="WIyWlLk6GJQsqaUBKTNV-1">
          <mxGeometry x="320" y="510" width="30" height="30" as="geometry" />
        </mxCell>
        <mxCell id="8dxnfPyvJ1v5oPELOGiW-112" value="1..*" style="text;html=1;align=center;verticalAlign=middle;resizable=0;points=[];autosize=1;strokeColor=none;fillColor=none;" vertex="1" parent="WIyWlLk6GJQsqaUBKTNV-1">
          <mxGeometry x="380" y="510" width="40" height="30" as="geometry" />
        </mxCell>
        <mxCell id="8dxnfPyvJ1v5oPELOGiW-113" value="1" style="text;html=1;align=center;verticalAlign=middle;resizable=0;points=[];autosize=1;strokeColor=none;fillColor=none;" vertex="1" parent="WIyWlLk6GJQsqaUBKTNV-1">
          <mxGeometry x="-20" y="340" width="30" height="30" as="geometry" />
        </mxCell>
        <mxCell id="8dxnfPyvJ1v5oPELOGiW-114" value="0..*" style="text;html=1;align=center;verticalAlign=middle;resizable=0;points=[];autosize=1;strokeColor=none;fillColor=none;" vertex="1" parent="WIyWlLk6GJQsqaUBKTNV-1">
          <mxGeometry x="40" y="575" width="40" height="30" as="geometry" />
        </mxCell>
        <mxCell id="8dxnfPyvJ1v5oPELOGiW-116" value="1" style="text;html=1;align=center;verticalAlign=middle;resizable=0;points=[];autosize=1;strokeColor=none;fillColor=none;" vertex="1" parent="WIyWlLk6GJQsqaUBKTNV-1">
          <mxGeometry x="495" y="110" width="30" height="30" as="geometry" />
        </mxCell>
        <mxCell id="8dxnfPyvJ1v5oPELOGiW-118" value="0..*" style="text;html=1;align=center;verticalAlign=middle;resizable=0;points=[];autosize=1;strokeColor=none;fillColor=none;" vertex="1" parent="WIyWlLk6GJQsqaUBKTNV-1">
          <mxGeometry x="490" y="179" width="40" height="30" as="geometry" />
        </mxCell>
        <mxCell id="8dxnfPyvJ1v5oPELOGiW-119" value="1" style="text;html=1;align=center;verticalAlign=middle;resizable=0;points=[];autosize=1;strokeColor=none;fillColor=none;" vertex="1" parent="WIyWlLk6GJQsqaUBKTNV-1">
          <mxGeometry x="340" y="300" width="30" height="30" as="geometry" />
        </mxCell>
        <mxCell id="8dxnfPyvJ1v5oPELOGiW-120" value="0..*" style="text;html=1;align=center;verticalAlign=middle;resizable=0;points=[];autosize=1;strokeColor=none;fillColor=none;" vertex="1" parent="WIyWlLk6GJQsqaUBKTNV-1">
          <mxGeometry x="370" y="300" width="40" height="30" as="geometry" />
        </mxCell>
        <mxCell id="8dxnfPyvJ1v5oPELOGiW-188" value="1" style="endArrow=open;html=1;endSize=12;startArrow=diamondThin;startSize=14;startFill=1;edgeStyle=orthogonalEdgeStyle;align=left;verticalAlign=bottom;rounded=0;" edge="1" parent="WIyWlLk6GJQsqaUBKTNV-1">
          <mxGeometry x="-1" y="3" relative="1" as="geometry">
            <mxPoint x="330" y="540" as="sourcePoint" />
            <mxPoint x="410" y="540" as="targetPoint" />
          </mxGeometry>
        </mxCell>
        <mxCell id="8dxnfPyvJ1v5oPELOGiW-190" value="" style="endArrow=open;endFill=1;endSize=12;html=1;rounded=0;entryX=0.873;entryY=0.967;entryDx=0;entryDy=0;entryPerimeter=0;" edge="1" parent="WIyWlLk6GJQsqaUBKTNV-1" target="8dxnfPyvJ1v5oPELOGiW-109">
          <mxGeometry width="160" relative="1" as="geometry">
            <mxPoint x="620" y="549" as="sourcePoint" />
            <mxPoint x="780" y="550" as="targetPoint" />
          </mxGeometry>
        </mxCell>
        <mxCell id="8dxnfPyvJ1v5oPELOGiW-191" value="" style="endArrow=open;endFill=1;endSize=12;html=1;rounded=0;entryX=0.328;entryY=-0.006;entryDx=0;entryDy=0;entryPerimeter=0;" edge="1" parent="WIyWlLk6GJQsqaUBKTNV-1" target="8dxnfPyvJ1v5oPELOGiW-19">
          <mxGeometry width="160" relative="1" as="geometry">
            <mxPoint x="946" y="340" as="sourcePoint" />
            <mxPoint x="940" y="390" as="targetPoint" />
          </mxGeometry>
        </mxCell>
        <mxCell id="8dxnfPyvJ1v5oPELOGiW-192" value="" style="endArrow=open;endFill=1;endSize=12;html=1;rounded=0;entryX=0.166;entryY=1.093;entryDx=0;entryDy=0;entryPerimeter=0;exitX=0;exitY=0.5;exitDx=0;exitDy=0;" edge="1" parent="WIyWlLk6GJQsqaUBKTNV-1" source="8dxnfPyvJ1v5oPELOGiW-170" target="8dxnfPyvJ1v5oPELOGiW-187">
          <mxGeometry width="160" relative="1" as="geometry">
            <mxPoint x="-160" y="580" as="sourcePoint" />
            <mxPoint y="580" as="targetPoint" />
            <Array as="points">
              <mxPoint x="-20" y="603" />
            </Array>
          </mxGeometry>
        </mxCell>
        <mxCell id="8dxnfPyvJ1v5oPELOGiW-193" value="" style="endArrow=open;endFill=1;endSize=12;html=1;rounded=0;" edge="1" parent="WIyWlLk6GJQsqaUBKTNV-1">
          <mxGeometry width="160" relative="1" as="geometry">
            <mxPoint x="400" y="330" as="sourcePoint" />
            <mxPoint x="350" y="330" as="targetPoint" />
          </mxGeometry>
        </mxCell>
        <mxCell id="8dxnfPyvJ1v5oPELOGiW-194" value="" style="endArrow=open;html=1;endSize=12;startArrow=diamondThin;startSize=14;startFill=1;edgeStyle=orthogonalEdgeStyle;align=left;verticalAlign=bottom;rounded=0;exitX=0.32;exitY=1.113;exitDx=0;exitDy=0;exitPerimeter=0;" edge="1" parent="WIyWlLk6GJQsqaUBKTNV-1" source="8dxnfPyvJ1v5oPELOGiW-105">
          <mxGeometry x="-1" y="3" relative="1" as="geometry">
            <mxPoint x="740" y="300" as="sourcePoint" />
            <mxPoint x="900" y="300" as="targetPoint" />
            <mxPoint as="offset" />
          </mxGeometry>
        </mxCell>
      </root>
    </mxGraphModel>
  </diagram>
  <diagram id="Hoap7LgBlyutiVpjYhBe" name="PÃ¡gina-2">
    <mxGraphModel dx="1518" dy="666" grid="1" gridSize="10" guides="1" tooltips="1" connect="1" arrows="1" fold="1" page="1" pageScale="1" pageWidth="827" pageHeight="1169" math="0" shadow="0">
      <root>
        <mxCell id="0" />
        <mxCell id="1" parent="0" />
        <mxCell id="LiGffM2nyhmwmUFuuPao-1" value="" style="shape=actor;whiteSpace=wrap;html=1;" vertex="1" parent="1">
          <mxGeometry x="40" y="150" width="40" height="60" as="geometry" />
        </mxCell>
        <mxCell id="LiGffM2nyhmwmUFuuPao-2" value="" style="shape=actor;whiteSpace=wrap;html=1;" vertex="1" parent="1">
          <mxGeometry x="535" y="70" width="40" height="60" as="geometry" />
        </mxCell>
        <mxCell id="LiGffM2nyhmwmUFuuPao-4" value="" style="shape=actor;whiteSpace=wrap;html=1;" vertex="1" parent="1">
          <mxGeometry x="1160" y="335" width="40" height="60" as="geometry" />
        </mxCell>
        <mxCell id="LiGffM2nyhmwmUFuuPao-5" value="Cliente" style="text;html=1;align=center;verticalAlign=middle;resizable=0;points=[];autosize=1;strokeColor=none;fillColor=none;" vertex="1" parent="1">
          <mxGeometry x="30" y="120" width="60" height="30" as="geometry" />
        </mxCell>
        <mxCell id="LiGffM2nyhmwmUFuuPao-6" value="Vendedor" style="text;html=1;align=center;verticalAlign=middle;resizable=0;points=[];autosize=1;strokeColor=none;fillColor=none;" vertex="1" parent="1">
          <mxGeometry x="520" y="40" width="70" height="30" as="geometry" />
        </mxCell>
        <mxCell id="LiGffM2nyhmwmUFuuPao-7" value="Fornecedor" style="text;html=1;align=center;verticalAlign=middle;resizable=0;points=[];autosize=1;strokeColor=none;fillColor=none;" vertex="1" parent="1">
          <mxGeometry x="1140" y="395" width="80" height="30" as="geometry" />
        </mxCell>
        <mxCell id="LiGffM2nyhmwmUFuuPao-8" value="" style="shape=actor;whiteSpace=wrap;html=1;" vertex="1" parent="1">
          <mxGeometry x="655" y="361" width="40" height="60" as="geometry" />
        </mxCell>
        <mxCell id="LiGffM2nyhmwmUFuuPao-11" value="Gerente" style="text;html=1;align=center;verticalAlign=middle;resizable=0;points=[];autosize=1;strokeColor=none;fillColor=none;" vertex="1" parent="1">
          <mxGeometry x="640" y="429" width="70" height="30" as="geometry" />
        </mxCell>
        <mxCell id="LiGffM2nyhmwmUFuuPao-12" value="" style="shape=actor;whiteSpace=wrap;html=1;" vertex="1" parent="1">
          <mxGeometry x="100" y="500" width="40" height="60" as="geometry" />
        </mxCell>
        <mxCell id="LiGffM2nyhmwmUFuuPao-13" value="Contabilidade" style="text;html=1;align=center;verticalAlign=middle;resizable=0;points=[];autosize=1;strokeColor=none;fillColor=none;" vertex="1" parent="1">
          <mxGeometry x="70" y="570" width="100" height="30" as="geometry" />
        </mxCell>
        <mxCell id="LiGffM2nyhmwmUFuuPao-15" value="UC05- Efetua Venda" style="ellipse;whiteSpace=wrap;html=1;align=center;newEdgeStyle={&quot;edgeStyle&quot;:&quot;entityRelationEdgeStyle&quot;,&quot;startArrow&quot;:&quot;none&quot;,&quot;endArrow&quot;:&quot;none&quot;,&quot;segment&quot;:10,&quot;curved&quot;:1,&quot;sourcePerimeterSpacing&quot;:0,&quot;targetPerimeterSpacing&quot;:0};treeFolding=1;treeMoving=1;" vertex="1" parent="1">
          <mxGeometry x="180" width="160" height="40" as="geometry" />
        </mxCell>
        <mxCell id="LiGffM2nyhmwmUFuuPao-16" value="UC01-Gerencia Cliente" style="ellipse;whiteSpace=wrap;html=1;align=center;newEdgeStyle={&quot;edgeStyle&quot;:&quot;entityRelationEdgeStyle&quot;,&quot;startArrow&quot;:&quot;none&quot;,&quot;endArrow&quot;:&quot;none&quot;,&quot;segment&quot;:10,&quot;curved&quot;:1,&quot;sourcePerimeterSpacing&quot;:0,&quot;targetPerimeterSpacing&quot;:0};treeFolding=1;treeMoving=1;" vertex="1" parent="1">
          <mxGeometry x="180" y="60" width="160" height="40" as="geometry" />
        </mxCell>
        <mxCell id="LiGffM2nyhmwmUFuuPao-19" value="UC06- Realiza Remessa" style="ellipse;whiteSpace=wrap;html=1;align=center;newEdgeStyle={&quot;edgeStyle&quot;:&quot;entityRelationEdgeStyle&quot;,&quot;startArrow&quot;:&quot;none&quot;,&quot;endArrow&quot;:&quot;none&quot;,&quot;segment&quot;:10,&quot;curved&quot;:1,&quot;sourcePerimeterSpacing&quot;:0,&quot;targetPerimeterSpacing&quot;:0};treeFolding=1;treeMoving=1;" vertex="1" parent="1">
          <mxGeometry x="180" y="120" width="160" height="40" as="geometry" />
        </mxCell>
        <mxCell id="LiGffM2nyhmwmUFuuPao-20" value="UC07-Gera Boleto" style="ellipse;whiteSpace=wrap;html=1;align=center;newEdgeStyle={&quot;edgeStyle&quot;:&quot;entityRelationEdgeStyle&quot;,&quot;startArrow&quot;:&quot;none&quot;,&quot;endArrow&quot;:&quot;none&quot;,&quot;segment&quot;:10,&quot;curved&quot;:1,&quot;sourcePerimeterSpacing&quot;:0,&quot;targetPerimeterSpacing&quot;:0};treeFolding=1;treeMoving=1;" vertex="1" parent="1">
          <mxGeometry x="180" y="180" width="160" height="40" as="geometry" />
        </mxCell>
        <mxCell id="LiGffM2nyhmwmUFuuPao-21" value="UC08- Baixa de Boleto" style="ellipse;whiteSpace=wrap;html=1;align=center;newEdgeStyle={&quot;edgeStyle&quot;:&quot;entityRelationEdgeStyle&quot;,&quot;startArrow&quot;:&quot;none&quot;,&quot;endArrow&quot;:&quot;none&quot;,&quot;segment&quot;:10,&quot;curved&quot;:1,&quot;sourcePerimeterSpacing&quot;:0,&quot;targetPerimeterSpacing&quot;:0};treeFolding=1;treeMoving=1;" vertex="1" parent="1">
          <mxGeometry x="180" y="240" width="160" height="40" as="geometry" />
        </mxCell>
        <mxCell id="LiGffM2nyhmwmUFuuPao-22" value="UC09- Cobrar Boleto" style="ellipse;whiteSpace=wrap;html=1;align=center;newEdgeStyle={&quot;edgeStyle&quot;:&quot;entityRelationEdgeStyle&quot;,&quot;startArrow&quot;:&quot;none&quot;,&quot;endArrow&quot;:&quot;none&quot;,&quot;segment&quot;:10,&quot;curved&quot;:1,&quot;sourcePerimeterSpacing&quot;:0,&quot;targetPerimeterSpacing&quot;:0};treeFolding=1;treeMoving=1;" vertex="1" parent="1">
          <mxGeometry x="180" y="295" width="160" height="40" as="geometry" />
        </mxCell>
        <mxCell id="LiGffM2nyhmwmUFuuPao-27" value="" style="edgeStyle=entityRelationEdgeStyle;startArrow=none;endArrow=none;segment=10;curved=1;sourcePerimeterSpacing=0;targetPerimeterSpacing=0;rounded=0;entryX=0;entryY=0.5;entryDx=0;entryDy=0;exitX=1;exitY=0.667;exitDx=0;exitDy=0;exitPerimeter=0;" edge="1" target="LiGffM2nyhmwmUFuuPao-15" parent="1" source="LiGffM2nyhmwmUFuuPao-1">
          <mxGeometry relative="1" as="geometry">
            <mxPoint x="80" y="185" as="sourcePoint" />
            <mxPoint x="120" y="165" as="targetPoint" />
            <Array as="points">
              <mxPoint x="80" y="190" />
            </Array>
          </mxGeometry>
        </mxCell>
        <mxCell id="LiGffM2nyhmwmUFuuPao-30" value="" style="edgeStyle=entityRelationEdgeStyle;startArrow=none;endArrow=none;segment=10;curved=1;sourcePerimeterSpacing=0;targetPerimeterSpacing=0;rounded=0;entryX=0;entryY=0.5;entryDx=0;entryDy=0;" edge="1" target="LiGffM2nyhmwmUFuuPao-19" parent="1">
          <mxGeometry relative="1" as="geometry">
            <mxPoint x="80" y="200" as="sourcePoint" />
            <mxPoint x="110" y="180" as="targetPoint" />
          </mxGeometry>
        </mxCell>
        <mxCell id="LiGffM2nyhmwmUFuuPao-32" value="" style="edgeStyle=entityRelationEdgeStyle;startArrow=none;endArrow=none;segment=10;curved=1;sourcePerimeterSpacing=0;targetPerimeterSpacing=0;rounded=0;exitX=0.883;exitY=0.08;exitDx=0;exitDy=0;exitPerimeter=0;entryX=0;entryY=0.5;entryDx=0;entryDy=0;" edge="1" target="LiGffM2nyhmwmUFuuPao-20" parent="1">
          <mxGeometry relative="1" as="geometry">
            <mxPoint x="80.00000000000001" y="206.2" as="sourcePoint" />
            <mxPoint x="107.02" y="213.8" as="targetPoint" />
          </mxGeometry>
        </mxCell>
        <mxCell id="LiGffM2nyhmwmUFuuPao-34" value="" style="edgeStyle=entityRelationEdgeStyle;startArrow=none;endArrow=none;segment=10;curved=1;sourcePerimeterSpacing=0;targetPerimeterSpacing=0;rounded=0;entryX=0;entryY=0.5;entryDx=0;entryDy=0;exitX=1;exitY=0.75;exitDx=0;exitDy=0;" edge="1" target="LiGffM2nyhmwmUFuuPao-16" parent="1" source="LiGffM2nyhmwmUFuuPao-1">
          <mxGeometry relative="1" as="geometry">
            <mxPoint x="90" y="190" as="sourcePoint" />
            <mxPoint x="140" y="150" as="targetPoint" />
            <Array as="points">
              <mxPoint x="80" y="200" />
            </Array>
          </mxGeometry>
        </mxCell>
        <mxCell id="LiGffM2nyhmwmUFuuPao-41" value="" style="edgeStyle=entityRelationEdgeStyle;startArrow=none;endArrow=none;segment=10;curved=1;sourcePerimeterSpacing=0;targetPerimeterSpacing=0;rounded=0;entryX=0;entryY=0.5;entryDx=0;entryDy=0;exitX=0.75;exitY=1;exitDx=0;exitDy=0;" edge="1" target="LiGffM2nyhmwmUFuuPao-21" parent="1" source="LiGffM2nyhmwmUFuuPao-1">
          <mxGeometry relative="1" as="geometry">
            <mxPoint x="40" y="290" as="sourcePoint" />
            <mxPoint x="95" y="270" as="targetPoint" />
          </mxGeometry>
        </mxCell>
        <mxCell id="LiGffM2nyhmwmUFuuPao-43" value="" style="edgeStyle=entityRelationEdgeStyle;startArrow=none;endArrow=none;segment=10;curved=1;sourcePerimeterSpacing=0;targetPerimeterSpacing=0;rounded=0;entryX=0;entryY=0.5;entryDx=0;entryDy=0;" edge="1" target="LiGffM2nyhmwmUFuuPao-22" parent="1">
          <mxGeometry relative="1" as="geometry">
            <mxPoint x="70" y="210" as="sourcePoint" />
            <mxPoint x="110" y="260" as="targetPoint" />
          </mxGeometry>
        </mxCell>
        <mxCell id="LiGffM2nyhmwmUFuuPao-49" value="" style="edgeStyle=entityRelationEdgeStyle;startArrow=none;endArrow=none;segment=10;curved=1;sourcePerimeterSpacing=0;targetPerimeterSpacing=0;rounded=0;exitX=1;exitY=0.5;exitDx=0;exitDy=0;entryX=0.1;entryY=0.5;entryDx=0;entryDy=0;entryPerimeter=0;" edge="1" target="LiGffM2nyhmwmUFuuPao-2" parent="1" source="LiGffM2nyhmwmUFuuPao-15">
          <mxGeometry relative="1" as="geometry">
            <mxPoint x="495" y="140" as="sourcePoint" />
            <mxPoint x="535" y="120" as="targetPoint" />
            <Array as="points">
              <mxPoint x="535" y="100" />
            </Array>
          </mxGeometry>
        </mxCell>
        <mxCell id="LiGffM2nyhmwmUFuuPao-51" value="" style="edgeStyle=entityRelationEdgeStyle;startArrow=none;endArrow=none;segment=10;curved=1;sourcePerimeterSpacing=0;targetPerimeterSpacing=0;rounded=0;exitX=1;exitY=0.5;exitDx=0;exitDy=0;entryX=0;entryY=0.75;entryDx=0;entryDy=0;" edge="1" target="LiGffM2nyhmwmUFuuPao-2" parent="1" source="LiGffM2nyhmwmUFuuPao-16">
          <mxGeometry relative="1" as="geometry">
            <mxPoint x="400" y="230" as="sourcePoint" />
            <mxPoint x="530" y="110" as="targetPoint" />
            <Array as="points">
              <mxPoint x="530" y="110" />
            </Array>
          </mxGeometry>
        </mxCell>
        <mxCell id="LiGffM2nyhmwmUFuuPao-53" value="" style="edgeStyle=entityRelationEdgeStyle;startArrow=none;endArrow=none;segment=10;curved=1;sourcePerimeterSpacing=0;targetPerimeterSpacing=0;rounded=0;exitX=1;exitY=0.5;exitDx=0;exitDy=0;" edge="1" parent="1" source="LiGffM2nyhmwmUFuuPao-19">
          <mxGeometry relative="1" as="geometry">
            <mxPoint x="495" y="140" as="sourcePoint" />
            <mxPoint x="535" y="120" as="targetPoint" />
          </mxGeometry>
        </mxCell>
        <mxCell id="LiGffM2nyhmwmUFuuPao-55" value="" style="edgeStyle=entityRelationEdgeStyle;startArrow=none;endArrow=none;segment=10;curved=1;sourcePerimeterSpacing=0;targetPerimeterSpacing=0;rounded=0;entryX=0.25;entryY=1;entryDx=0;entryDy=0;exitX=1;exitY=0.5;exitDx=0;exitDy=0;" edge="1" target="LiGffM2nyhmwmUFuuPao-2" parent="1" source="LiGffM2nyhmwmUFuuPao-20">
          <mxGeometry relative="1" as="geometry">
            <mxPoint x="429" y="240" as="sourcePoint" />
            <mxPoint x="469" y="220" as="targetPoint" />
          </mxGeometry>
        </mxCell>
        <mxCell id="LiGffM2nyhmwmUFuuPao-56" value="UC04- Gerencia Funcionario" style="ellipse;whiteSpace=wrap;html=1;align=center;newEdgeStyle={&quot;edgeStyle&quot;:&quot;entityRelationEdgeStyle&quot;,&quot;startArrow&quot;:&quot;none&quot;,&quot;endArrow&quot;:&quot;none&quot;,&quot;segment&quot;:10,&quot;curved&quot;:1,&quot;sourcePerimeterSpacing&quot;:0,&quot;targetPerimeterSpacing&quot;:0};treeFolding=1;treeMoving=1;" vertex="1" parent="1">
          <mxGeometry x="515" y="240" width="195" height="40" as="geometry" />
        </mxCell>
        <mxCell id="LiGffM2nyhmwmUFuuPao-65" value="UC14- Atualiza Estoque" style="ellipse;whiteSpace=wrap;html=1;align=center;newEdgeStyle={&quot;edgeStyle&quot;:&quot;entityRelationEdgeStyle&quot;,&quot;startArrow&quot;:&quot;none&quot;,&quot;endArrow&quot;:&quot;none&quot;,&quot;segment&quot;:10,&quot;curved&quot;:1,&quot;sourcePerimeterSpacing&quot;:0,&quot;targetPerimeterSpacing&quot;:0};treeFolding=1;treeMoving=1;" vertex="1" parent="1">
          <mxGeometry x="810" width="195" height="40" as="geometry" />
        </mxCell>
        <mxCell id="LiGffM2nyhmwmUFuuPao-66" value="UC12- Receber Pedido Compra" style="ellipse;whiteSpace=wrap;html=1;align=center;newEdgeStyle={&quot;edgeStyle&quot;:&quot;entityRelationEdgeStyle&quot;,&quot;startArrow&quot;:&quot;none&quot;,&quot;endArrow&quot;:&quot;none&quot;,&quot;segment&quot;:10,&quot;curved&quot;:1,&quot;sourcePerimeterSpacing&quot;:0,&quot;targetPerimeterSpacing&quot;:0};treeFolding=1;treeMoving=1;" vertex="1" parent="1">
          <mxGeometry x="880" y="190" width="195" height="40" as="geometry" />
        </mxCell>
        <mxCell id="LiGffM2nyhmwmUFuuPao-67" value="UC03- Gerenciar Livros" style="ellipse;whiteSpace=wrap;html=1;align=center;newEdgeStyle={&quot;edgeStyle&quot;:&quot;entityRelationEdgeStyle&quot;,&quot;startArrow&quot;:&quot;none&quot;,&quot;endArrow&quot;:&quot;none&quot;,&quot;segment&quot;:10,&quot;curved&quot;:1,&quot;sourcePerimeterSpacing&quot;:0,&quot;targetPerimeterSpacing&quot;:0};treeFolding=1;treeMoving=1;" vertex="1" parent="1">
          <mxGeometry x="910" y="300" width="170" height="40" as="geometry" />
        </mxCell>
        <mxCell id="LiGffM2nyhmwmUFuuPao-68" value="UC11- Fazer Pedido Compra" style="ellipse;whiteSpace=wrap;html=1;align=center;newEdgeStyle={&quot;edgeStyle&quot;:&quot;entityRelationEdgeStyle&quot;,&quot;startArrow&quot;:&quot;none&quot;,&quot;endArrow&quot;:&quot;none&quot;,&quot;segment&quot;:10,&quot;curved&quot;:1,&quot;sourcePerimeterSpacing&quot;:0,&quot;targetPerimeterSpacing&quot;:0};treeFolding=1;treeMoving=1;" vertex="1" parent="1">
          <mxGeometry x="910" y="340" width="182.5" height="40" as="geometry" />
        </mxCell>
        <mxCell id="LiGffM2nyhmwmUFuuPao-69" value="UC02-Gerenciar Fornecedor" style="ellipse;whiteSpace=wrap;html=1;align=center;newEdgeStyle={&quot;edgeStyle&quot;:&quot;entityRelationEdgeStyle&quot;,&quot;startArrow&quot;:&quot;none&quot;,&quot;endArrow&quot;:&quot;none&quot;,&quot;segment&quot;:10,&quot;curved&quot;:1,&quot;sourcePerimeterSpacing&quot;:0,&quot;targetPerimeterSpacing&quot;:0};treeFolding=1;treeMoving=1;" vertex="1" parent="1">
          <mxGeometry x="920" y="380" width="172.5" height="40" as="geometry" />
        </mxCell>
        <mxCell id="LiGffM2nyhmwmUFuuPao-74" value="" style="edgeStyle=entityRelationEdgeStyle;startArrow=none;endArrow=none;segment=10;curved=1;sourcePerimeterSpacing=0;targetPerimeterSpacing=0;rounded=0;entryX=0.055;entryY=0.623;entryDx=0;entryDy=0;entryPerimeter=0;" edge="1" target="LiGffM2nyhmwmUFuuPao-4" parent="1">
          <mxGeometry relative="1" as="geometry">
            <mxPoint x="1080" y="320" as="sourcePoint" />
            <mxPoint x="1120" y="300" as="targetPoint" />
            <Array as="points">
              <mxPoint x="1160" y="370" />
            </Array>
          </mxGeometry>
        </mxCell>
        <mxCell id="LiGffM2nyhmwmUFuuPao-75" value="" style="edgeStyle=entityRelationEdgeStyle;startArrow=none;endArrow=none;segment=10;curved=1;sourcePerimeterSpacing=0;targetPerimeterSpacing=0;rounded=0;entryX=0;entryY=0.75;entryDx=0;entryDy=0;" edge="1" parent="1" target="LiGffM2nyhmwmUFuuPao-4">
          <mxGeometry relative="1" as="geometry">
            <mxPoint x="1092.5" y="358" as="sourcePoint" />
            <mxPoint x="1174.5" y="410" as="targetPoint" />
            <Array as="points">
              <mxPoint x="1172.5" y="408" />
            </Array>
          </mxGeometry>
        </mxCell>
        <mxCell id="LiGffM2nyhmwmUFuuPao-76" value="" style="edgeStyle=entityRelationEdgeStyle;startArrow=none;endArrow=none;segment=10;curved=1;sourcePerimeterSpacing=0;targetPerimeterSpacing=0;rounded=0;exitX=1;exitY=0.5;exitDx=0;exitDy=0;" edge="1" parent="1" source="LiGffM2nyhmwmUFuuPao-69">
          <mxGeometry relative="1" as="geometry">
            <mxPoint x="1102.5" y="368" as="sourcePoint" />
            <mxPoint x="1160" y="390" as="targetPoint" />
            <Array as="points">
              <mxPoint x="1100" y="400" />
              <mxPoint x="1182.5" y="418" />
              <mxPoint x="1160" y="390" />
            </Array>
          </mxGeometry>
        </mxCell>
        <mxCell id="LiGffM2nyhmwmUFuuPao-77" value="" style="edgeStyle=entityRelationEdgeStyle;startArrow=none;endArrow=none;segment=10;curved=1;sourcePerimeterSpacing=0;targetPerimeterSpacing=0;rounded=0;entryX=0.1;entryY=0.5;entryDx=0;entryDy=0;entryPerimeter=0;" edge="1" parent="1" target="LiGffM2nyhmwmUFuuPao-4">
          <mxGeometry relative="1" as="geometry">
            <mxPoint x="1060" y="220" as="sourcePoint" />
            <mxPoint x="1127.5" y="242" as="targetPoint" />
            <Array as="points">
              <mxPoint x="1140" y="270" />
            </Array>
          </mxGeometry>
        </mxCell>
        <mxCell id="LiGffM2nyhmwmUFuuPao-78" value="" style="edgeStyle=entityRelationEdgeStyle;startArrow=none;endArrow=none;segment=10;curved=1;sourcePerimeterSpacing=0;targetPerimeterSpacing=0;rounded=0;exitX=0.5;exitY=1;exitDx=0;exitDy=0;entryX=0.357;entryY=0.032;entryDx=0;entryDy=0;entryPerimeter=0;" edge="1" parent="1" target="LiGffM2nyhmwmUFuuPao-56">
          <mxGeometry relative="1" as="geometry">
            <mxPoint x="550" y="130" as="sourcePoint" />
            <mxPoint x="606.2599999999998" y="249.60000000000002" as="targetPoint" />
            <Array as="points">
              <mxPoint x="617.5" y="130" />
            </Array>
          </mxGeometry>
        </mxCell>
        <mxCell id="LiGffM2nyhmwmUFuuPao-79" value="" style="edgeStyle=entityRelationEdgeStyle;startArrow=none;endArrow=none;segment=10;curved=1;sourcePerimeterSpacing=0;targetPerimeterSpacing=0;rounded=0;entryX=0.044;entryY=0.74;entryDx=0;entryDy=0;entryPerimeter=0;" edge="1" parent="1" target="LiGffM2nyhmwmUFuuPao-66">
          <mxGeometry relative="1" as="geometry">
            <mxPoint x="695" y="395" as="sourcePoint" />
            <mxPoint x="762.5" y="417" as="targetPoint" />
            <Array as="points">
              <mxPoint x="775" y="445" />
              <mxPoint x="712.5" y="407" />
            </Array>
          </mxGeometry>
        </mxCell>
        <mxCell id="LiGffM2nyhmwmUFuuPao-80" value="" style="edgeStyle=entityRelationEdgeStyle;startArrow=none;endArrow=none;segment=10;curved=1;sourcePerimeterSpacing=0;targetPerimeterSpacing=0;rounded=0;entryX=0;entryY=0.5;entryDx=0;entryDy=0;" edge="1" parent="1" target="LiGffM2nyhmwmUFuuPao-67">
          <mxGeometry relative="1" as="geometry">
            <mxPoint x="695" y="399" as="sourcePoint" />
            <mxPoint x="762.5" y="421" as="targetPoint" />
            <Array as="points">
              <mxPoint x="775" y="449" />
            </Array>
          </mxGeometry>
        </mxCell>
        <mxCell id="LiGffM2nyhmwmUFuuPao-81" value="" style="edgeStyle=entityRelationEdgeStyle;startArrow=none;endArrow=none;segment=10;curved=1;sourcePerimeterSpacing=0;targetPerimeterSpacing=0;rounded=0;entryX=0;entryY=0.5;entryDx=0;entryDy=0;" edge="1" parent="1" target="LiGffM2nyhmwmUFuuPao-68">
          <mxGeometry relative="1" as="geometry">
            <mxPoint x="695" y="403" as="sourcePoint" />
            <mxPoint x="762.5" y="425" as="targetPoint" />
            <Array as="points">
              <mxPoint x="775" y="453" />
            </Array>
          </mxGeometry>
        </mxCell>
        <mxCell id="LiGffM2nyhmwmUFuuPao-82" value="" style="edgeStyle=entityRelationEdgeStyle;startArrow=none;endArrow=none;segment=10;curved=1;sourcePerimeterSpacing=0;targetPerimeterSpacing=0;rounded=0;entryX=0;entryY=0.5;entryDx=0;entryDy=0;" edge="1" parent="1" target="LiGffM2nyhmwmUFuuPao-69">
          <mxGeometry relative="1" as="geometry">
            <mxPoint x="695" y="407" as="sourcePoint" />
            <mxPoint x="762.5" y="429" as="targetPoint" />
            <Array as="points">
              <mxPoint x="775" y="457" />
            </Array>
          </mxGeometry>
        </mxCell>
        <mxCell id="LiGffM2nyhmwmUFuuPao-83" value="UC10- Gerar relatÃ³rio de Estoque" style="ellipse;whiteSpace=wrap;html=1;align=center;newEdgeStyle={&quot;edgeStyle&quot;:&quot;entityRelationEdgeStyle&quot;,&quot;startArrow&quot;:&quot;none&quot;,&quot;endArrow&quot;:&quot;none&quot;,&quot;segment&quot;:10,&quot;curved&quot;:1,&quot;sourcePerimeterSpacing&quot;:0,&quot;targetPerimeterSpacing&quot;:0};treeFolding=1;treeMoving=1;" vertex="1" parent="1">
          <mxGeometry x="920" y="450" width="200" height="40" as="geometry" />
        </mxCell>
        <mxCell id="LiGffM2nyhmwmUFuuPao-84" value="" style="edgeStyle=entityRelationEdgeStyle;startArrow=none;endArrow=none;segment=10;curved=1;sourcePerimeterSpacing=0;targetPerimeterSpacing=0;rounded=0;entryX=0;entryY=0.5;entryDx=0;entryDy=0;exitX=0.96;exitY=0.883;exitDx=0;exitDy=0;exitPerimeter=0;" edge="1" parent="1" source="LiGffM2nyhmwmUFuuPao-8" target="LiGffM2nyhmwmUFuuPao-83">
          <mxGeometry relative="1" as="geometry">
            <mxPoint x="705" y="417" as="sourcePoint" />
            <mxPoint x="930" y="410" as="targetPoint" />
            <Array as="points">
              <mxPoint x="785" y="467" />
            </Array>
          </mxGeometry>
        </mxCell>
        <mxCell id="LiGffM2nyhmwmUFuuPao-85" value="UC13- Gerar relatÃ³rio Financeiro" style="ellipse;whiteSpace=wrap;html=1;align=center;newEdgeStyle={&quot;edgeStyle&quot;:&quot;entityRelationEdgeStyle&quot;,&quot;startArrow&quot;:&quot;none&quot;,&quot;endArrow&quot;:&quot;none&quot;,&quot;segment&quot;:10,&quot;curved&quot;:1,&quot;sourcePerimeterSpacing&quot;:0,&quot;targetPerimeterSpacing&quot;:0};treeFolding=1;treeMoving=1;" vertex="1" parent="1">
          <mxGeometry x="340" y="470" width="195" height="40" as="geometry" />
        </mxCell>
        <mxCell id="LiGffM2nyhmwmUFuuPao-87" value="" style="edgeStyle=entityRelationEdgeStyle;startArrow=none;endArrow=none;segment=10;curved=1;sourcePerimeterSpacing=0;targetPerimeterSpacing=0;rounded=0;entryX=0.04;entryY=0.897;entryDx=0;entryDy=0;entryPerimeter=0;exitX=0.967;exitY=0.3;exitDx=0;exitDy=0;exitPerimeter=0;" edge="1" target="LiGffM2nyhmwmUFuuPao-8" parent="1" source="LiGffM2nyhmwmUFuuPao-85">
          <mxGeometry relative="1" as="geometry">
            <mxPoint x="535" y="485" as="sourcePoint" />
            <mxPoint x="575" y="470" as="targetPoint" />
            <Array as="points">
              <mxPoint x="520" y="485" />
              <mxPoint x="530" y="480" />
            </Array>
          </mxGeometry>
        </mxCell>
        <mxCell id="LiGffM2nyhmwmUFuuPao-89" value="" style="edgeStyle=entityRelationEdgeStyle;startArrow=none;endArrow=none;segment=10;curved=1;sourcePerimeterSpacing=0;targetPerimeterSpacing=0;rounded=0;entryX=0;entryY=0.5;entryDx=0;entryDy=0;" edge="1" target="LiGffM2nyhmwmUFuuPao-85" parent="1">
          <mxGeometry relative="1" as="geometry">
            <mxPoint x="140" y="550" as="sourcePoint" />
            <mxPoint x="180" y="530" as="targetPoint" />
          </mxGeometry>
        </mxCell>
        <mxCell id="LiGffM2nyhmwmUFuuPao-90" value="" style="edgeStyle=entityRelationEdgeStyle;startArrow=none;endArrow=none;segment=10;curved=1;sourcePerimeterSpacing=0;targetPerimeterSpacing=0;rounded=0;entryX=0;entryY=0.5;entryDx=0;entryDy=0;exitX=0.944;exitY=0.72;exitDx=0;exitDy=0;exitPerimeter=0;" edge="1" parent="1" source="LiGffM2nyhmwmUFuuPao-22">
          <mxGeometry relative="1" as="geometry">
            <mxPoint x="455" y="460" as="sourcePoint" />
            <mxPoint x="655" y="400" as="targetPoint" />
          </mxGeometry>
        </mxCell>
        <mxCell id="LiGffM2nyhmwmUFuuPao-91" value="" style="edgeStyle=entityRelationEdgeStyle;startArrow=none;endArrow=none;segment=10;curved=1;sourcePerimeterSpacing=0;targetPerimeterSpacing=0;rounded=0;entryX=0.1;entryY=0.5;entryDx=0;entryDy=0;exitX=1;exitY=0.5;exitDx=0;exitDy=0;entryPerimeter=0;" edge="1" parent="1" source="LiGffM2nyhmwmUFuuPao-21" target="LiGffM2nyhmwmUFuuPao-8">
          <mxGeometry relative="1" as="geometry">
            <mxPoint x="331" y="260" as="sourcePoint" />
            <mxPoint x="655" y="361" as="targetPoint" />
          </mxGeometry>
        </mxCell>
        <mxCell id="LiGffM2nyhmwmUFuuPao-92" value="" style="edgeStyle=entityRelationEdgeStyle;startArrow=none;endArrow=none;segment=10;curved=1;sourcePerimeterSpacing=0;targetPerimeterSpacing=0;rounded=0;exitX=0.5;exitY=1;exitDx=0;exitDy=0;" edge="1" parent="1">
          <mxGeometry relative="1" as="geometry">
            <mxPoint x="623" y="281" as="sourcePoint" />
            <mxPoint x="680" y="361" as="targetPoint" />
            <Array as="points">
              <mxPoint x="690" y="281" />
            </Array>
          </mxGeometry>
        </mxCell>
        <mxCell id="LiGffM2nyhmwmUFuuPao-93" value="" style="html=1;verticalAlign=bottom;endArrow=open;dashed=1;endSize=8;curved=0;rounded=0;exitX=0.428;exitY=-0.049;exitDx=0;exitDy=0;exitPerimeter=0;entryX=0.628;entryY=1.057;entryDx=0;entryDy=0;entryPerimeter=0;" edge="1" parent="1" source="LiGffM2nyhmwmUFuuPao-66" target="LiGffM2nyhmwmUFuuPao-65">
          <mxGeometry relative="1" as="geometry">
            <mxPoint x="970" y="108.82" as="sourcePoint" />
            <mxPoint x="890" y="108.82" as="targetPoint" />
          </mxGeometry>
        </mxCell>
        <mxCell id="LiGffM2nyhmwmUFuuPao-94" value="&amp;lt;&amp;lt;include&amp;gt;&amp;gt;" style="text;html=1;align=center;verticalAlign=middle;resizable=0;points=[];autosize=1;strokeColor=none;fillColor=none;" vertex="1" parent="1">
          <mxGeometry x="940" y="110" width="90" height="30" as="geometry" />
        </mxCell>
        <mxCell id="LiGffM2nyhmwmUFuuPao-95" value="&amp;lt;&amp;lt;include&amp;gt;&amp;gt;" style="html=1;verticalAlign=bottom;endArrow=open;dashed=1;endSize=8;curved=0;rounded=0;entryX=0;entryY=0.5;entryDx=0;entryDy=0;exitX=0.958;exitY=0.313;exitDx=0;exitDy=0;exitPerimeter=0;" edge="1" parent="1" source="LiGffM2nyhmwmUFuuPao-15" target="LiGffM2nyhmwmUFuuPao-65">
          <mxGeometry relative="1" as="geometry">
            <mxPoint x="470" y="10" as="sourcePoint" />
            <mxPoint x="550" y="10" as="targetPoint" />
          </mxGeometry>
        </mxCell>
      </root>
    </mxGraphModel>
  </diagram>
</mxfile>
